{"title":"Detroit 1-8-7 S01E13 HDTV XviD-2HD","uid":6145034,"size":367564490,"categoryP":"video","categoryS":"tv_shows","magnet":"?xt=urn:btih:fbbbef7615a99bfeae857c465a2668392bb66558&amp;dn=Detroit+1-8-7+S01E13+HDTV+XviD-2HD&amp;tr=udp%3A%2F%2Ftracker.openbittorrent.com%3A80&amp;tr=udp%3A%2F%2Fopen.demonii.com%3A1337&amp;tr=udp%3A%2F%2Ftracker.coppersurfer.tk%3A6969&amp;tr=udp%3A%2F%2Fexodus.desync.com%3A6969","seeders":1,"leechers":0,"uploader":"TheCloon","files":4,"time":1296642920,"description":"Plot:\nThe team braces for a visit from Special Agent Harkins, who is there to interrogate them about Fitch after Malloy's murder.\n\nFitch and Washington attend to the case of a missing girl, the granddaughter of a prominent Grosse Pointe man who was found gunned down on a public bus with two other victims. A briefcase with bullet holes and a cell phone help the detectives find out who is responsible and how to get the abducted girl back safely.\n\nFitch also reveals to Washington exactly why he left his job, wife and son in New York. His excitement over his son visiting him in Detroit is dampened with a phone call from an old associate of his in New York. \n\n\nFormat                           : AVI\nFormat/Info                      : Audio Video Interleave\nFile size                        : 351 MiB\nDuration                         : 41mn 15s\nOverall bit rate                 : 1 188 Kbps\nWriting application              : MEncoder SVN-r32669-4.3.2\nWriting library                  : MPlayer\n\nVideo\nID                               : 0\nFormat                           : MPEG-4 Visual\nFormat profile                   : Advanced Simple@L5\nFormat settings, BVOP            : 1\nFormat settings, QPel            : No\nFormat settings, GMC             : No warppoints\nFormat settings, Matrix          : Default (H.263)\nCodec ID                         : XVID\nCodec ID/Hint                    : XviD\nDuration                         : 41mn 15s\nBit rate                         : 1 047 Kbps\nWidth                            : 624 pixels\nHeight                           : 352 pixels\nDisplay aspect ratio             : 16:9\nFrame rate                       : 23.976 fps\nColor space                      : YUV\nChroma subsampling               : 4:2:0\nBit depth                        : 8 bits\nScan type                        : Progressive\nCompression mode                 : Lossy\nBits/(Pixel*Frame)               : 0.199\nStream size                      : 309 MiB (88%)\nWriting library                  : XviD 1.2.1 (UTC 2008-12-04)\n\nAudio\nID                               : 1\nFormat                           : MPEG Audio\nFormat version                   : Version 1\nFormat profile                   : Layer 3\nMode                             : Joint stereo\nMode extension                   : MS Stereo\nCodec ID                         : 55\nCodec ID/Hint                    : MP3\nDuration                         : 41mn 15s\nBit rate mode                    : Variable\nBit rate                         : 128 Kbps\nChannel(s)                       : 2 channels\nSampling rate                    : 48.0 KHz\nCompression mode                 : Lossy\nStream size                      : 37.8 MiB (11%)\nAlignment                        : Aligned on interleaves\nInterleave, duration             : 24 ms (0.58 video frame)\nInterleave, preload duration     : 544 ms","torrent":{"xt":"urn:btih:fbbbef7615a99bfeae857c465a2668392bb66558","amp;dn":"Detroit+1-8-7+S01E13+HDTV+XviD-2HD","amp;tr":["udp%3A%2F%2Ftracker.openbittorrent.com%3A80","udp%3A%2F%2Fopen.demonii.com%3A1337","udp%3A%2F%2Ftracker.coppersurfer.tk%3A6969","udp%3A%2F%2Fexodus.desync.com%3A6969"],"infoHash":"fbbbef7615a99bfeae857c465a2668392bb66558","infoHashBuffer":{"type":"Buffer","data":[251,187,239,118,21,169,155,254,174,133,124,70,90,38,104,57,43,182,101,88]},"announce":[],"urlList":[]}}